<mxfile host="app.diagrams.net" modified="2024-04-29T05:08:41.223Z" agent="Mozilla/5.0 (Macintosh; Intel Mac OS X 10_15_7) AppleWebKit/605.1.15 (KHTML, like Gecko) Version/17.4.1 Safari/605.1.15" etag="mgIzT-wl7slfMyxZHLNU" version="24.3.1" type="device">
  <diagram name="Page-1" id="Tj9uHXxIKHg3lnYpYCCw">
    <mxGraphModel dx="720" dy="989" grid="1" gridSize="10" guides="1" tooltips="1" connect="1" arrows="1" fold="1" page="1" pageScale="1" pageWidth="1169" pageHeight="827" math="0" shadow="0">
      <root>
        <mxCell id="0" />
        <mxCell id="1" parent="0" />
        <mxCell id="IM1AuELe9phpEPAYIhdZ-34" style="rounded=0;orthogonalLoop=1;jettySize=auto;html=1;entryX=1;entryY=1;entryDx=0;entryDy=0;endArrow=none;endFill=0;" parent="1" source="IM1AuELe9phpEPAYIhdZ-1" target="IM1AuELe9phpEPAYIhdZ-2" edge="1">
          <mxGeometry relative="1" as="geometry" />
        </mxCell>
        <mxCell id="IM1AuELe9phpEPAYIhdZ-35" style="rounded=0;orthogonalLoop=1;jettySize=auto;html=1;entryX=1;entryY=0.5;entryDx=0;entryDy=0;endArrow=none;endFill=0;" parent="1" source="IM1AuELe9phpEPAYIhdZ-1" target="IM1AuELe9phpEPAYIhdZ-3" edge="1">
          <mxGeometry relative="1" as="geometry" />
        </mxCell>
        <mxCell id="IM1AuELe9phpEPAYIhdZ-36" style="rounded=0;orthogonalLoop=1;jettySize=auto;html=1;entryX=1;entryY=0.5;entryDx=0;entryDy=0;endArrow=none;endFill=0;" parent="1" source="IM1AuELe9phpEPAYIhdZ-1" target="IM1AuELe9phpEPAYIhdZ-4" edge="1">
          <mxGeometry relative="1" as="geometry" />
        </mxCell>
        <mxCell id="IM1AuELe9phpEPAYIhdZ-37" style="rounded=0;orthogonalLoop=1;jettySize=auto;html=1;entryX=1;entryY=0;entryDx=0;entryDy=0;endArrow=none;endFill=0;" parent="1" source="IM1AuELe9phpEPAYIhdZ-1" target="IM1AuELe9phpEPAYIhdZ-5" edge="1">
          <mxGeometry relative="1" as="geometry" />
        </mxCell>
        <mxCell id="vQkeKnE3UuVJXsy9uDu9-10" style="rounded=0;orthogonalLoop=1;jettySize=auto;html=1;entryX=0;entryY=0.5;entryDx=0;entryDy=0;endArrow=none;endFill=0;" parent="1" source="IM1AuELe9phpEPAYIhdZ-1" target="IM1AuELe9phpEPAYIhdZ-29" edge="1">
          <mxGeometry relative="1" as="geometry" />
        </mxCell>
        <mxCell id="IM1AuELe9phpEPAYIhdZ-1" value="User" style="rounded=0;whiteSpace=wrap;html=1;fontSize=14;" parent="1" vertex="1">
          <mxGeometry x="210" y="150" width="120" height="60" as="geometry" />
        </mxCell>
        <mxCell id="IM1AuELe9phpEPAYIhdZ-2" value="first_name" style="ellipse;whiteSpace=wrap;html=1;" parent="1" vertex="1">
          <mxGeometry x="90" y="60" width="100" height="50" as="geometry" />
        </mxCell>
        <mxCell id="IM1AuELe9phpEPAYIhdZ-3" value="last_name" style="ellipse;whiteSpace=wrap;html=1;" parent="1" vertex="1">
          <mxGeometry x="40" y="130" width="100" height="50" as="geometry" />
        </mxCell>
        <mxCell id="IM1AuELe9phpEPAYIhdZ-4" value="username" style="ellipse;whiteSpace=wrap;html=1;" parent="1" vertex="1">
          <mxGeometry x="40" y="210" width="100" height="50" as="geometry" />
        </mxCell>
        <mxCell id="IM1AuELe9phpEPAYIhdZ-5" value="email" style="ellipse;whiteSpace=wrap;html=1;fontStyle=4" parent="1" vertex="1">
          <mxGeometry x="120" y="270" width="100" height="50" as="geometry" />
        </mxCell>
        <mxCell id="IM1AuELe9phpEPAYIhdZ-41" style="rounded=0;orthogonalLoop=1;jettySize=auto;html=1;entryX=0;entryY=1;entryDx=0;entryDy=0;endArrow=none;endFill=0;exitX=1;exitY=0;exitDx=0;exitDy=0;" parent="1" source="IM1AuELe9phpEPAYIhdZ-6" target="IM1AuELe9phpEPAYIhdZ-31" edge="1">
          <mxGeometry relative="1" as="geometry" />
        </mxCell>
        <mxCell id="IM1AuELe9phpEPAYIhdZ-43" style="rounded=0;orthogonalLoop=1;jettySize=auto;html=1;entryX=1;entryY=1;entryDx=0;entryDy=0;exitX=0;exitY=0;exitDx=0;exitDy=0;strokeWidth=2;endArrow=block;endFill=1;" parent="1" source="IM1AuELe9phpEPAYIhdZ-6" target="IM1AuELe9phpEPAYIhdZ-30" edge="1">
          <mxGeometry relative="1" as="geometry">
            <mxPoint x="440" y="440" as="sourcePoint" />
          </mxGeometry>
        </mxCell>
        <mxCell id="IM1AuELe9phpEPAYIhdZ-6" value="Collection" style="rounded=0;whiteSpace=wrap;html=1;fontSize=14;" parent="1" vertex="1">
          <mxGeometry x="480" y="370" width="120" height="60" as="geometry" />
        </mxCell>
        <mxCell id="IM1AuELe9phpEPAYIhdZ-7" value="name" style="ellipse;whiteSpace=wrap;html=1;" parent="1" vertex="1">
          <mxGeometry x="470" y="510" width="70" height="50" as="geometry" />
        </mxCell>
        <mxCell id="IM1AuELe9phpEPAYIhdZ-9" value="description" style="ellipse;whiteSpace=wrap;html=1;" parent="1" vertex="1">
          <mxGeometry x="570" y="500" width="100" height="50" as="geometry" />
        </mxCell>
        <mxCell id="IM1AuELe9phpEPAYIhdZ-21" style="rounded=0;orthogonalLoop=1;jettySize=auto;html=1;entryX=0.5;entryY=1;entryDx=0;entryDy=0;endArrow=none;endFill=0;dashed=1;" parent="1" source="IM1AuELe9phpEPAYIhdZ-10" target="IM1AuELe9phpEPAYIhdZ-11" edge="1">
          <mxGeometry relative="1" as="geometry" />
        </mxCell>
        <mxCell id="IM1AuELe9phpEPAYIhdZ-24" style="rounded=0;orthogonalLoop=1;jettySize=auto;html=1;entryX=0.5;entryY=1;entryDx=0;entryDy=0;endArrow=none;endFill=0;dashed=1;" parent="1" source="IM1AuELe9phpEPAYIhdZ-10" target="IM1AuELe9phpEPAYIhdZ-12" edge="1">
          <mxGeometry relative="1" as="geometry" />
        </mxCell>
        <mxCell id="IM1AuELe9phpEPAYIhdZ-25" style="rounded=0;orthogonalLoop=1;jettySize=auto;html=1;entryX=0;entryY=0.5;entryDx=0;entryDy=0;endArrow=none;endFill=0;" parent="1" source="IM1AuELe9phpEPAYIhdZ-10" target="IM1AuELe9phpEPAYIhdZ-18" edge="1">
          <mxGeometry relative="1" as="geometry" />
        </mxCell>
        <mxCell id="vQkeKnE3UuVJXsy9uDu9-4" style="rounded=0;orthogonalLoop=1;jettySize=auto;html=1;entryX=0;entryY=1;entryDx=0;entryDy=0;endArrow=none;endFill=0;dashed=1;" parent="1" source="IM1AuELe9phpEPAYIhdZ-10" target="IM1AuELe9phpEPAYIhdZ-13" edge="1">
          <mxGeometry relative="1" as="geometry" />
        </mxCell>
        <mxCell id="vQkeKnE3UuVJXsy9uDu9-5" style="rounded=0;orthogonalLoop=1;jettySize=auto;html=1;entryX=0;entryY=0.5;entryDx=0;entryDy=0;endArrow=none;endFill=0;" parent="1" source="IM1AuELe9phpEPAYIhdZ-10" target="IM1AuELe9phpEPAYIhdZ-14" edge="1">
          <mxGeometry relative="1" as="geometry" />
        </mxCell>
        <mxCell id="vQkeKnE3UuVJXsy9uDu9-6" style="rounded=0;orthogonalLoop=1;jettySize=auto;html=1;entryX=0;entryY=1;entryDx=0;entryDy=0;endArrow=none;endFill=0;dashed=1;" parent="1" source="IM1AuELe9phpEPAYIhdZ-10" target="IM1AuELe9phpEPAYIhdZ-20" edge="1">
          <mxGeometry relative="1" as="geometry" />
        </mxCell>
        <mxCell id="vQkeKnE3UuVJXsy9uDu9-7" style="rounded=0;orthogonalLoop=1;jettySize=auto;html=1;entryX=0;entryY=0.5;entryDx=0;entryDy=0;endArrow=none;endFill=0;dashed=1;" parent="1" source="IM1AuELe9phpEPAYIhdZ-10" target="IM1AuELe9phpEPAYIhdZ-15" edge="1">
          <mxGeometry relative="1" as="geometry" />
        </mxCell>
        <mxCell id="vQkeKnE3UuVJXsy9uDu9-8" style="rounded=0;orthogonalLoop=1;jettySize=auto;html=1;entryX=0;entryY=0;entryDx=0;entryDy=0;endArrow=none;endFill=0;exitX=1;exitY=1;exitDx=0;exitDy=0;dashed=1;" parent="1" source="IM1AuELe9phpEPAYIhdZ-10" target="IM1AuELe9phpEPAYIhdZ-16" edge="1">
          <mxGeometry relative="1" as="geometry" />
        </mxCell>
        <mxCell id="vQkeKnE3UuVJXsy9uDu9-9" style="rounded=0;orthogonalLoop=1;jettySize=auto;html=1;entryX=0;entryY=0;entryDx=0;entryDy=0;endArrow=none;endFill=0;" parent="1" source="IM1AuELe9phpEPAYIhdZ-10" target="IM1AuELe9phpEPAYIhdZ-17" edge="1">
          <mxGeometry relative="1" as="geometry" />
        </mxCell>
        <mxCell id="IM1AuELe9phpEPAYIhdZ-10" value="Event" style="rounded=0;whiteSpace=wrap;html=1;fontSize=14;" parent="1" vertex="1">
          <mxGeometry x="740" y="185" width="120" height="60" as="geometry" />
        </mxCell>
        <mxCell id="IM1AuELe9phpEPAYIhdZ-11" value="emoji" style="ellipse;whiteSpace=wrap;html=1;" parent="1" vertex="1">
          <mxGeometry x="705" y="50" width="70" height="50" as="geometry" />
        </mxCell>
        <mxCell id="IM1AuELe9phpEPAYIhdZ-12" value="location" style="ellipse;whiteSpace=wrap;html=1;" parent="1" vertex="1">
          <mxGeometry x="790" y="40" width="70" height="50" as="geometry" />
        </mxCell>
        <mxCell id="IM1AuELe9phpEPAYIhdZ-13" value="url" style="ellipse;whiteSpace=wrap;html=1;" parent="1" vertex="1">
          <mxGeometry x="880" y="40" width="70" height="50" as="geometry" />
        </mxCell>
        <mxCell id="IM1AuELe9phpEPAYIhdZ-14" value="visibility" style="ellipse;whiteSpace=wrap;html=1;" parent="1" vertex="1">
          <mxGeometry x="1020" y="185" width="70" height="50" as="geometry" />
        </mxCell>
        <mxCell id="IM1AuELe9phpEPAYIhdZ-15" value="start" style="ellipse;whiteSpace=wrap;html=1;" parent="1" vertex="1">
          <mxGeometry x="1000" y="250" width="70" height="50" as="geometry" />
        </mxCell>
        <mxCell id="IM1AuELe9phpEPAYIhdZ-16" value="end" style="ellipse;whiteSpace=wrap;html=1;" parent="1" vertex="1">
          <mxGeometry x="930" y="300" width="70" height="50" as="geometry" />
        </mxCell>
        <mxCell id="IM1AuELe9phpEPAYIhdZ-17" value="name" style="ellipse;whiteSpace=wrap;html=1;" parent="1" vertex="1">
          <mxGeometry x="840" y="320" width="70" height="50" as="geometry" />
        </mxCell>
        <mxCell id="IM1AuELe9phpEPAYIhdZ-18" value="id" style="ellipse;whiteSpace=wrap;html=1;fontStyle=4" parent="1" vertex="1">
          <mxGeometry x="1020" y="117.5" width="70" height="50" as="geometry" />
        </mxCell>
        <mxCell id="IM1AuELe9phpEPAYIhdZ-20" value="description" style="ellipse;whiteSpace=wrap;html=1;" parent="1" vertex="1">
          <mxGeometry x="960" y="60" width="90" height="50" as="geometry" />
        </mxCell>
        <mxCell id="vQkeKnE3UuVJXsy9uDu9-11" style="rounded=0;orthogonalLoop=1;jettySize=auto;html=1;entryX=0;entryY=0;entryDx=0;entryDy=0;endArrow=none;endFill=0;exitX=1;exitY=0.5;exitDx=0;exitDy=0;" parent="1" source="IM1AuELe9phpEPAYIhdZ-29" target="IM1AuELe9phpEPAYIhdZ-10" edge="1">
          <mxGeometry relative="1" as="geometry" />
        </mxCell>
        <mxCell id="IM1AuELe9phpEPAYIhdZ-29" value="keened" style="rhombus;whiteSpace=wrap;html=1;" parent="1" vertex="1">
          <mxGeometry x="504" y="82.5" width="80" height="85" as="geometry" />
        </mxCell>
        <mxCell id="vQkeKnE3UuVJXsy9uDu9-1" style="rounded=0;orthogonalLoop=1;jettySize=auto;html=1;entryX=1;entryY=1;entryDx=0;entryDy=0;endArrow=none;endFill=0;exitX=0;exitY=0;exitDx=0;exitDy=0;" parent="1" source="IM1AuELe9phpEPAYIhdZ-30" target="IM1AuELe9phpEPAYIhdZ-1" edge="1">
          <mxGeometry relative="1" as="geometry" />
        </mxCell>
        <mxCell id="IM1AuELe9phpEPAYIhdZ-30" value="create" style="rhombus;whiteSpace=wrap;html=1;" parent="1" vertex="1">
          <mxGeometry x="360" y="250" width="80" height="80" as="geometry" />
        </mxCell>
        <mxCell id="vQkeKnE3UuVJXsy9uDu9-3" style="rounded=0;orthogonalLoop=1;jettySize=auto;html=1;entryX=0;entryY=1;entryDx=0;entryDy=0;endArrow=none;endFill=0;startArrow=none;startFill=0;strokeWidth=1;exitX=1;exitY=0;exitDx=0;exitDy=0;" parent="1" source="IM1AuELe9phpEPAYIhdZ-31" target="IM1AuELe9phpEPAYIhdZ-10" edge="1">
          <mxGeometry relative="1" as="geometry">
            <mxPoint x="700.7407407407409" y="290.74074074074065" as="sourcePoint" />
          </mxGeometry>
        </mxCell>
        <mxCell id="NgZJ4toRGjzOUVV5W9BB-5" style="rounded=0;orthogonalLoop=1;jettySize=auto;html=1;entryX=0.5;entryY=0;entryDx=0;entryDy=0;endArrow=none;endFill=0;" edge="1" parent="1" source="IM1AuELe9phpEPAYIhdZ-31" target="IM1AuELe9phpEPAYIhdZ-33">
          <mxGeometry relative="1" as="geometry" />
        </mxCell>
        <mxCell id="IM1AuELe9phpEPAYIhdZ-31" value="contains" style="rhombus;whiteSpace=wrap;html=1;" parent="1" vertex="1">
          <mxGeometry x="630" y="270" width="80" height="80" as="geometry" />
        </mxCell>
        <mxCell id="IM1AuELe9phpEPAYIhdZ-33" value="date_added" style="ellipse;whiteSpace=wrap;html=1;" parent="1" vertex="1">
          <mxGeometry x="690" y="375" width="100" height="50" as="geometry" />
        </mxCell>
        <mxCell id="IM1AuELe9phpEPAYIhdZ-38" style="rounded=0;orthogonalLoop=1;jettySize=auto;html=1;entryX=0.5;entryY=0;entryDx=0;entryDy=0;endArrow=none;endFill=0;" parent="1" source="IM1AuELe9phpEPAYIhdZ-6" target="IM1AuELe9phpEPAYIhdZ-7" edge="1">
          <mxGeometry relative="1" as="geometry" />
        </mxCell>
        <mxCell id="IM1AuELe9phpEPAYIhdZ-39" style="rounded=0;orthogonalLoop=1;jettySize=auto;html=1;entryX=0.276;entryY=0.019;entryDx=0;entryDy=0;entryPerimeter=0;endArrow=none;endFill=0;dashed=1;" parent="1" source="IM1AuELe9phpEPAYIhdZ-6" target="IM1AuELe9phpEPAYIhdZ-9" edge="1">
          <mxGeometry relative="1" as="geometry" />
        </mxCell>
        <mxCell id="NgZJ4toRGjzOUVV5W9BB-8" style="rounded=0;orthogonalLoop=1;jettySize=auto;html=1;entryX=0;entryY=1;entryDx=0;entryDy=0;endArrow=none;endFill=0;" edge="1" parent="1" source="NgZJ4toRGjzOUVV5W9BB-7" target="IM1AuELe9phpEPAYIhdZ-6">
          <mxGeometry relative="1" as="geometry" />
        </mxCell>
        <mxCell id="NgZJ4toRGjzOUVV5W9BB-7" value="&lt;u&gt;id&lt;/u&gt;" style="ellipse;whiteSpace=wrap;html=1;" vertex="1" parent="1">
          <mxGeometry x="390" y="490" width="70" height="50" as="geometry" />
        </mxCell>
      </root>
    </mxGraphModel>
  </diagram>
</mxfile>
